<?xml version="1.0" encoding="utf-8"?>
<!-- Generator: Adobe Illustrator 23.0.3, SVG Export Plug-In . SVG Version: 6.00 Build 0)  -->
<svg version="1.1" id="Layer_1" xmlns="http://www.w3.org/2000/svg" xmlns:xlink="http://www.w3.org/1999/xlink" x="0px" y="0px"
	 viewBox="0 0 11.3 11.3" style="enable-background:new 0 0 11.3 11.3;" xml:space="preserve">
<style type="text/css">
	.st0{fill:#E6BD17;}
</style>
<path class="st0" d="M5.7,0C2.5,0,0,2.5,0,5.7s2.5,5.7,5.7,5.7s5.7-2.5,5.7-5.7S8.8,0,5.7,0z M5.1,2.5C5.1,2.2,5.4,2,5.7,2
	s0.6,0.3,0.6,0.6v4.3c0,0.3-0.3,0.6-0.6,0.6S5.1,7.1,5.1,6.8V2.5z M5.7,9.5c-0.4,0-0.7-0.3-0.7-0.7C4.9,8.3,5.3,8,5.7,8
	s0.7,0.3,0.7,0.7C6.4,9.1,6.1,9.5,5.7,9.5z"/>
</svg>
