<?xml version="1.0" encoding="utf-8"?>
<!-- Generator: Adobe Illustrator 23.0.3, SVG Export Plug-In . SVG Version: 6.00 Build 0)  -->
<svg version="1.1" id="Layer_1" xmlns="http://www.w3.org/2000/svg" xmlns:xlink="http://www.w3.org/1999/xlink" x="0px" y="0px"
	 viewBox="0 0 10.8 10.8" style="enable-background:new 0 0 10.8 10.8;" xml:space="preserve">
<style type="text/css">
	.st0{fill:#40A356;}
</style>
<path class="st0" d="M9.6,0H1.1C0.5,0,0,0.5,0,1.1v8.5c0,0.6,0.5,1.1,1.1,1.1h8.5c0.6,0,1.1-0.5,1.1-1.1V1.1C10.8,0.5,10.3,0,9.6,0z
	 M8.9,3.7L4.8,7.8C4.7,7.9,4.6,8,4.4,8S4.1,7.9,4,7.8L1.9,5.7c-0.2-0.2-0.2-0.6,0-0.8c0.2-0.2,0.6-0.2,0.8,0l1.7,1.7L8.1,3
	c0.2-0.2,0.6-0.2,0.8,0C9.1,3.2,9.1,3.5,8.9,3.7z"/>
</svg>
