<?xml version="1.0" encoding="utf-8"?>
<!-- Generator: Adobe Illustrator 23.0.3, SVG Export Plug-In . SVG Version: 6.00 Build 0)  -->
<svg version="1.1" id="Layer_1" xmlns="http://www.w3.org/2000/svg" xmlns:xlink="http://www.w3.org/1999/xlink" x="0px" y="0px"
	 viewBox="0 0 11.9 10.5" style="enable-background:new 0 0 11.9 10.5;" xml:space="preserve">
<style type="text/css">
	.st0{fill:#FF4141;}
</style>
<path class="st0" d="M11.8,9.2L6.7,0.4c-0.3-0.6-1.1-0.6-1.5,0L0.1,9.2c-0.3,0.6,0.1,1.3,0.7,1.3h10.2C11.8,10.5,12.2,9.8,11.8,9.2z
	 M5.4,2.9c0-0.3,0.3-0.6,0.6-0.6s0.6,0.3,0.6,0.6v3.9c0,0.3-0.3,0.6-0.6,0.6S5.4,7.1,5.4,6.8V2.9z M6,9.5c-0.4,0-0.7-0.3-0.7-0.7
	S5.6,8,6,8s0.7,0.3,0.7,0.7S6.4,9.5,6,9.5z"/>
</svg>
