<?xml version="1.0" encoding="utf-8"?>
<!-- Generator: Adobe Illustrator 23.0.3, SVG Export Plug-In . SVG Version: 6.00 Build 0)  -->
<svg version="1.1" id="Layer_1" xmlns="http://www.w3.org/2000/svg" xmlns:xlink="http://www.w3.org/1999/xlink" x="0px" y="0px"
	 viewBox="0 0 99.2 11.2" style="enable-background:new 0 0 99.2 11.2;" xml:space="preserve">
<style type="text/css">
	.st0{fill:#666666;}
</style>
<g>
	<g>
		<path class="st0" d="M32.8,8.9c-0.5,1.9,0.2,2.3,2.4,2.3h2l0.5-1.9H37c-0.6,0-0.8-0.2-0.7-0.7l1.1-4.1h1.5l0.5-1.9h-1.5L38.6,0
			h-3.4l-0.7,2.5H33l-0.5,1.9H34L32.8,8.9z"/>
		<path class="st0" d="M46.9,11.2l1.7-6.3c0.5-1.8-1.2-2.3-2.2-2.3h-6l-0.5,1.9l4.6,0c0.6,0,0.8,0.3,0.6,1l-1,3.8l-1.1,0
			c-0.6,0-0.8-0.3-0.6-1l0.8-3l-3.8,1.5l-0.5,2.1c-0.5,1.9,0.6,2.3,2.2,2.3H46.9z"/>
		<path class="st0" d="M29.5,2.5h-6.1l-0.5,1.9h3.2l-3.6,1.4l-1.4,5.3h3.5l1.8-6.7h1.1c0.6,0,0.8,0.3,0.6,1l-1.5,5.7H30l1.7-6.3
			C32.2,3,31.1,2.5,29.5,2.5z"/>
		<path class="st0" d="M12.7,4.4H16l-3.6,1.4l-0.8,2.9c-0.5,1.9,0.7,2.4,2.3,2.4H20l0.5-1.9l-4.7,0c-0.6,0-0.8-0.3-0.6-1l0.1-0.4
			l5.4,0l0.8-3C22,3,20.9,2.5,19.4,2.5h-4.5C14,2.5,13.1,2.9,12.7,4.4z M17.3,4.4c0.6,0,0.8,0.3,0.6,1l-0.1,0.4h-2l0.4-1.4H17.3z"/>
		<path class="st0" d="M1.3,0L0.8,1.9h5L2.1,3.4L0,11.2h3.7l1-3.8h0.1l2.9,0c1.7,0,3.3-0.5,3.8-2.6l0.6-2.2C12.7,0.5,11.2,0,9.7,0
			H1.3z M7.9,4.1C7.7,4.9,7.3,5.3,6.6,5.3H5.3l0.9-3.3h1.4c0.7,0,0.9,0.3,0.7,1.1L7.9,4.1z"/>
	</g>
	<g>
		<path class="st0" d="M51.3,4.9c0.7-2.3,1.5-2.5,3.6-2.5c1.7,0,2.8,0.1,2.1,2.4H56c0.4-1.5,0.3-1.6-1.5-1.6c-1.7,0-2,0.3-2.4,1.4
			c-0.5,1.6,0.3,1.5,1.7,1.5c1.8,0.1,2.7,0.1,2,2.5c-0.7,2.4-1.8,2.5-3.7,2.5c-2,0-2.9-0.3-2-2.7h0.9c-0.6,1.9-0.3,1.9,1.4,1.9
			c1.6,0,2.1,0,2.6-1.7c0.5-1.6-0.2-1.4-1.6-1.6C52,7,50.6,7.2,51.3,4.9z"/>
		<path class="st0" d="M58.2,6.3h4L62,7.1h-4l-0.8,3.2h4.1L61,11.2h-5l2.3-8.6h5L63,3.4H59L58.2,6.3z"/>
		<path class="st0" d="M77.1,2.5l-1.6,6.2c-0.6,2.4-1.9,2.5-3.7,2.5c-1.7,0-3,0-2.4-2.5L71,2.5h0.9l-1.6,6.2
			c-0.4,1.4-0.1,1.6,1.8,1.6c1.6,0,2.2-0.2,2.6-1.6l1.6-6.2H77.1z"/>
		<path class="st0" d="M83.7,11.2h-0.9l2.3-8.6H86L83.7,11.2z"/>
		<path class="st0" d="M87.8,11.2H87L89,3.4h-2.5l0.2-0.8h5.9l-0.2,0.8h-2.5L87.8,11.2z"/>
		<path class="st0" d="M95.1,7.5l-1,3.6h-0.9l1-3.6l-1.6-5h1l1.3,4l3.3-4h1L95.1,7.5z"/>
		<path class="st0" d="M67.5,8.9c-0.3,1.2-0.8,1.4-2.2,1.4h-0.9c-1.5,0-1.3-1-0.8-2.9l0.6-2.4c0.4-1.6,1.1-1.8,2.9-1.8h0.5
			c1.1,0,1.2,0.4,1,1.6h0.9c0.4-1.6-0.1-2.1-0.9-2.3c-0.4-0.1-1.4-0.1-1.4-0.1c-1.9,0-3.3,0.3-3.9,2.7l-0.9,3.4
			c-0.4,1.7,0.2,2.7,1.6,2.7h1.1c1.5,0,2.7-0.2,3.2-2.2l0.2-0.6h-0.9L67.5,8.9z"/>
		<path class="st0" d="M81.7,2.5L81.7,2.5l-3.6,0l-2.3,8.6h0.9l0.9-3.5h2.8c1.1,0,1.2,0.5,0.9,1.6l-0.5,1.9h0.9l0.6-2.3
			c0.2-0.9,0-1.5-0.8-1.5l0,0c1.2-0.2,1.6-1,1.9-2.2l0,0l0-0.1c0,0,0,0,0,0c0,0,0,0,0,0l0-0.1C83.9,3,83.3,2.5,81.7,2.5z M80.6,6.8
			h-2.7l0.9-3.4h2.7c0.7,0,1.1,0.1,1.2,0.4c0.1,0.2,0,0.6-0.1,1.1C82.2,6.3,81.9,6.8,80.6,6.8z"/>
	</g>
</g>
</svg>
