<?xml version="1.0" encoding="utf-8"?>
<!-- Generator: Adobe Illustrator 23.0.3, SVG Export Plug-In . SVG Version: 6.00 Build 0)  -->
<svg version="1.1" id="Layer_1" xmlns="http://www.w3.org/2000/svg" xmlns:xlink="http://www.w3.org/1999/xlink" x="0px" y="0px"
	 viewBox="0 0 141.7 16" style="enable-background:new 0 0 141.7 16;" xml:space="preserve">
<style type="text/css">
	.st0{fill:#0060A9;}
	.st1{fill:#999B9E;}
</style>
<g>
	<g>
		<path class="st0" d="M46.9,12.7c-0.7,2.7,0.3,3.2,3.5,3.2h2.9l0.7-2.7h-1.1c-0.8,0-1.2-0.3-1-1l1.6-5.9h2.2l0.7-2.7h-2.2l1-3.6
			h-4.9l-1,3.6h-2.2l-0.7,2.7h2.2L46.9,12.7z"/>
		<path class="st0" d="M67,15.9l2.4-9c0.7-2.6-1.6-3.3-3.2-3.3h-8.6l-0.7,2.7l6.6,0c0.9,0,1.1,0.4,0.9,1.5l-1.4,5.4l-1.6,0
			c-0.9,0-1.1-0.4-0.9-1.5l1.1-4.2L56,9.7l-0.8,2.9c-0.7,2.6,0.9,3.3,3.1,3.3H67z"/>
		<path class="st0" d="M42.1,3.6h-8.7l-0.7,2.7h4.6l-5.1,2l-2,7.6h4.9l2.5-9.6h1.6c0.9,0,1.1,0.4,0.9,1.5L38,15.9h4.9l2.4-9
			C45.9,4.3,44.4,3.6,42.1,3.6z"/>
		<path class="st0" d="M18.2,6.3h4.6l-5.2,2l-1.1,4.2c-0.7,2.6,1,3.4,3.2,3.4h8.8l0.7-2.7l-6.7,0c-0.8,0-1.1-0.5-0.8-1.5l0.2-0.6
			l7.7,0l1.1-4.2c0.7-2.6-0.9-3.3-3.1-3.3h-6.4C20.1,3.6,18.7,4.1,18.2,6.3z M24.8,6.3c0.9,0,1.1,0.4,0.9,1.5l-0.1,0.6h-2.8l0.5-2
			H24.8z"/>
		<path class="st0" d="M1.9,0L1.2,2.7h7.2L2.9,4.8L0,15.9h5.3l1.4-5.4h0.1l4.2,0c2.5,0,4.7-0.8,5.5-3.7l0.8-3.1
			C18.1,0.8,16,0,13.9,0H1.9z M11.3,5.9C11,7,10.5,7.5,9.5,7.5h-2l1.3-4.8h2c1,0,1.3,0.5,1,1.6L11.3,5.9z"/>
	</g>
	<g>
		<path class="st1" d="M73.2,7.1c1-3.3,2.2-3.6,5.1-3.6c2.4,0,4.1,0.1,2.9,3.4h-1.3c0.6-2.1,0.4-2.2-2.1-2.2c-2.4,0-2.9,0.5-3.4,2
			C73.9,9.1,74.9,8.9,77,9c2.6,0.2,3.9,0.2,2.9,3.5c-1,3.5-2.5,3.6-5.3,3.6c-2.8,0-4.2-0.4-2.9-3.9H73c-0.8,2.7-0.4,2.7,2,2.7
			c2.4,0,3,0,3.7-2.4c0.7-2.3-0.3-2.1-2.3-2.2C74.2,10,72.3,10.3,73.2,7.1z"/>
		<path class="st1" d="M83.1,9h5.7l-0.3,1.1h-5.7l-1.2,4.6h5.8l-0.3,1.2H80l3.3-12.3h7.1L90,4.8h-5.8L83.1,9z"/>
		<path class="st1" d="M110.2,3.6l-2.3,8.9c-0.9,3.4-2.7,3.5-5.3,3.5c-2.4,0-4.4-0.1-3.4-3.5l2.3-8.9h1.3l-2.4,8.9
			c-0.5,2-0.2,2.3,2.5,2.3c2.2,0,3.2-0.3,3.7-2.3l2.3-8.9H110.2z"/>
		<path class="st1" d="M119.5,15.9h-1.3l3.3-12.3h1.2L119.5,15.9z"/>
		<path class="st1" d="M125.5,15.9h-1.3l2.9-11.1h-3.6l0.3-1.2h8.4L132,4.8h-3.6L125.5,15.9z"/>
		<path class="st1" d="M135.8,10.7l-1.4,5.2h-1.3l1.4-5.2l-2.3-7.1h1.5l1.9,5.7l4.6-5.7h1.5L135.8,10.7z"/>
		<path class="st1" d="M96.4,12.8c-0.4,1.7-1.1,2.1-3.1,2.1H92c-2.1,0-1.9-1.4-1.2-4.2l0.9-3.4c0.5-2.2,1.5-2.6,4.1-2.6h0.7
			c1.6,0,1.8,0.6,1.4,2.2h1.3c0.5-2.2-0.2-3-1.3-3.3c-0.5-0.1-2-0.2-2-0.2c-2.7,0-4.7,0.4-5.5,3.9l-1.3,4.8
			c-0.6,2.4,0.3,3.9,2.3,3.9h1.6c2.2,0,3.9-0.3,4.6-3.1l0.3-0.9h-1.3L96.4,12.8z"/>
		<path class="st1" d="M116.7,3.6L116.7,3.6l-5.1,0l-3.3,12.3h1.2l1.3-5h4c1.5,0,1.7,0.8,1.2,2.3l-0.7,2.7h1.2l0.9-3.3
			c0.4-1.3,0-2.1-1.2-2.2l0,0c1.8-0.2,2.3-1.5,2.8-3.1l0,0l0-0.1c0,0,0,0,0,0c0,0,0,0,0,0l0-0.1C119.9,4.3,119,3.6,116.7,3.6z
			 M115.1,9.7h-3.9l1.3-4.9h3.8c1.1,0,1.6,0.2,1.7,0.6c0.1,0.3,0.1,0.9-0.1,1.6C117.5,9,117.1,9.6,115.1,9.7z"/>
	</g>
</g>
</svg>
