<?xml version="1.0" encoding="utf-8"?>
<!-- Generator: Adobe Illustrator 23.0.3, SVG Export Plug-In . SVG Version: 6.00 Build 0)  -->
<svg version="1.1" id="Layer_1" xmlns="http://www.w3.org/2000/svg" xmlns:xlink="http://www.w3.org/1999/xlink" x="0px" y="0px"
	 viewBox="0 0 99.2 12.6" style="enable-background:new 0 0 99.2 12.6;" xml:space="preserve">
<style type="text/css">
	.st0{fill:#02275E;}
</style>
<g>
	<path class="st0" d="M15.3,0l-2.6,5.4l-2.3-4.8c0,0-1.8,2.5-2,2.8c0.2,0.4,3.8,8.1,4.4,9.2C13.3,11.4,19.5,0,19.5,0H15.3z"/>
	<path class="st0" d="M45.3,1c-0.6-0.3-1.2-0.6-2-0.7C42.5,0.1,41.5,0,40.2,0c0,0-5.6,0-6.3,0v2.5c0.7,0,5.7,0,5.7,0
		c0.9,0,1.5,0.1,1.9,0.2c0.5,0.2,0.8,0.6,0.8,1.1c0,0.3-0.1,0.8-0.7,1.1c-0.4,0.2-1,0.3-2,0.3c0,0-5,0-5.7,0v4.4
		c0.1,0.1,1.3,2.8,1.4,3.1h3.2c0-0.6,0-5,0-5h2.1c1.4,0,2.6-0.1,3.5-0.4c0.9-0.3,1.6-0.7,2.2-1.4c0.6-0.6,0.9-1.3,0.9-2
		c0-0.5-0.2-1-0.5-1.6C46.3,1.8,45.9,1.3,45.3,1z M59.1,1c-0.6-0.3-1.2-0.6-2-0.7C56.3,0.1,55.3,0,54,0c0,0-5.6,0-6.3,0v0.3
		c0.2,0.3,0.5,0.5,0.7,0.8C48.7,1.6,48.9,2,49,2.5c0.5,0,4.5,0,4.5,0c0.9,0,1.5,0.1,1.9,0.2c0.5,0.2,0.8,0.6,0.8,1.1
		c0,0.3-0.1,0.8-0.7,1.1c-0.4,0.2-1,0.3-2,0.3c0,0-4,0-4.4,0c-0.2,0.8-0.6,1.5-1.2,2.1c0,0,0,0-0.1,0.1v5.3h4.6c0-0.6,0-5,0-5h2.1
		c1.4,0,2.6-0.1,3.5-0.4c0.9-0.3,1.6-0.7,2.2-1.4c0.6-0.6,0.9-1.3,0.9-2c0-0.5-0.2-1-0.5-1.6C60.2,1.8,59.7,1.3,59.1,1z M22,0
		c-0.2,0.4-5.6,11.7-6.1,12.6h4.5c0.2-0.4,3.9-9,3.9-9l3.4,6.6c0,0-3.9,0-4.3,0c-0.1,0.3-0.8,1.8-1,2.5h10.8
		c-0.4-1-5.6-12.2-5.8-12.6H22z M97.2,5c-0.5-0.4-1.4-1.1-2.6-2.1c-0.7-0.5-1.1-0.9-1.4-1.2c-0.3-0.4-0.4-0.7-0.4-1.1
		c0-0.1,0-0.3,0-0.5H88c-0.1,0.4-0.1,0.7-0.1,0.9c0,0.4,0.1,0.8,0.4,1.2c0.3,0.5,1.1,1.3,2.4,2.3c1.6,1.2,2.6,2.1,3,2.5
		c0.5,0.5,0.7,1,0.7,1.4c0,0.4-0.2,0.8-0.7,1.2c-0.5,0.4-1.3,0.6-2.4,0.6H78.1V7.6c0,0,7.1,0,7.8,0V5.1H73.5c0,0.6,0,5,0,5h-7.2
		c0,0,0-9.5,0-10.1h-4.6v0.5c0.1,0.2,0.5,0.7,0.5,0.7c0.5,0.9,0.8,1.8,0.8,2.7c0,1.2-0.5,2.4-1.4,3.4v5.4c0.7,0,30.3,0,30.3,0
		c3.1,0,5.2-0.7,6.4-2.1c0.6-0.7,0.9-1.4,0.9-2.2c0-0.7-0.3-1.5-0.9-2.3C98,5.7,97.6,5.4,97.2,5z M85.9,0H73.5v2.5h12.4V0z"/>
	<path class="st0" d="M0,0c0.5,1,6.2,11.6,6.7,12.5c0.5-0.7,2-2.7,2.2-3C8.8,9.1,4.3,0.4,4.1,0H0z"/>
</g>
</svg>
